<svg width="17" height="18" viewBox="0 0 17 18" fill="none" xmlns="http://www.w3.org/2000/svg">
<path d="M14.2163 0.666748C14.6727 0.666748 15.0431 1.04008 15.0431 1.50008V4.63091L13.3896 6.29758V2.33341H1.81555V15.6667H13.3896V13.3684L15.0431 11.7017V16.5001C15.0431 16.9601 14.6727 17.3334 14.2163 17.3334H0.988829C0.53248 17.3334 0.162109 16.9601 0.162109 16.5001V1.50008C0.162109 1.04008 0.53248 0.666748 0.988829 0.666748H14.2163ZM15.6862 6.34008L16.8552 7.51841L10.425 14.0001L9.25437 13.9984L9.25602 12.8217L15.6862 6.34008ZM8.4293 9.00008V10.6667H4.29571V9.00008H8.4293ZM10.9095 5.66675V7.33342H4.29571V5.66675H10.9095Z" fill="white"/>
</svg>
