<svg width="185" height="33" viewBox="0 0 185 33" fill="none" xmlns="http://www.w3.org/2000/svg">
<path fill-rule="evenodd" clip-rule="evenodd" d="M0.383822 15.349C0.595798 15.349 0.767639 15.5208 0.767639 15.7328L0.767639 16.5314C0.767639 16.7434 0.595798 16.9152 0.383822 16.9152C0.171845 16.9152 4.21685e-06 16.7434 4.22821e-06 16.5314L4.27098e-06 15.7328C4.28233e-06 15.5208 0.171845 15.349 0.383822 15.349Z" fill="#969696"/>
<path fill-rule="evenodd" clip-rule="evenodd" d="M18.807 15.349C19.019 15.349 19.1909 15.5208 19.1909 15.7328L19.1909 16.5314C19.1909 16.7434 19.019 16.9152 18.807 16.9152C18.5951 16.9152 18.4232 16.7434 18.4232 16.5314L18.4232 15.7328C18.4232 15.5208 18.5951 15.349 18.807 15.349Z" fill="#969696"/>
<path fill-rule="evenodd" clip-rule="evenodd" d="M34.1598 15.349C34.3717 15.349 34.5436 15.5208 34.5436 15.7328L34.5436 16.5314C34.5436 16.7434 34.3717 16.9152 34.1598 16.9152C33.9478 16.9152 33.7759 16.7434 33.7759 16.5314L33.7759 15.7328C33.7759 15.5208 33.9478 15.349 34.1598 15.349Z" fill="#969696"/>
<path fill-rule="evenodd" clip-rule="evenodd" d="M61.7946 15.349C62.0066 15.349 62.1784 15.5208 62.1784 15.7328L62.1784 16.5314C62.1784 16.7434 62.0066 16.9152 61.7946 16.9152C61.5826 16.9152 61.4108 16.7434 61.4108 16.5314L61.4108 15.7328C61.4108 15.5208 61.5826 15.349 61.7946 15.349Z" fill="#969696"/>
<path fill-rule="evenodd" clip-rule="evenodd" d="M64.8651 15.349C65.0771 15.349 65.249 15.5208 65.249 15.7328L65.249 16.5314C65.249 16.7434 65.0771 16.9152 64.8651 16.9152C64.6532 16.9152 64.4813 16.7434 64.4813 16.5314L64.4813 15.7328C64.4813 15.5208 64.6532 15.349 64.8651 15.349Z" fill="#969696"/>
<path fill-rule="evenodd" clip-rule="evenodd" d="M3.45438 14.3048C3.66635 14.3048 3.8382 14.4767 3.8382 14.6886L3.8382 17.6799C3.8382 17.8919 3.66635 18.0637 3.45438 18.0637C3.2424 18.0637 3.07056 17.8919 3.07056 17.6799L3.07056 14.6886C3.07056 14.4767 3.2424 14.3048 3.45438 14.3048Z" fill="#969696"/>
<path fill-rule="evenodd" clip-rule="evenodd" d="M15.7365 14.3048C15.9485 14.3048 16.1204 14.4767 16.1204 14.6886L16.1204 17.6799C16.1204 17.8919 15.9485 18.0637 15.7365 18.0637C15.5246 18.0637 15.3527 17.8919 15.3527 17.6799L15.3527 14.6886C15.3527 14.4767 15.5246 14.3048 15.7365 14.3048Z" fill="#969696"/>
<path fill-rule="evenodd" clip-rule="evenodd" d="M28.0186 14.3048C28.2306 14.3048 28.4025 14.4767 28.4025 14.6886L28.4025 17.6799C28.4025 17.8919 28.2306 18.0637 28.0186 18.0637C27.8067 18.0637 27.6348 17.8919 27.6348 17.6799L27.6348 14.6886C27.6348 14.4767 27.8067 14.3048 28.0186 14.3048Z" fill="#969696"/>
<path fill-rule="evenodd" clip-rule="evenodd" d="M24.9482 13.6783C25.1601 13.6783 25.332 13.8502 25.332 14.0622L25.332 18.3064C25.332 18.5184 25.1601 18.6903 24.9482 18.6903C24.7362 18.6903 24.5643 18.5184 24.5643 18.3064L24.5643 14.0622C24.5643 13.8502 24.7362 13.6783 24.9482 13.6783Z" fill="#969696"/>
<path fill-rule="evenodd" clip-rule="evenodd" d="M6.52487 10.9636C6.73685 10.9636 6.90869 11.1354 6.90869 11.3474L6.90869 21.0212C6.90869 21.2332 6.73685 21.405 6.52487 21.405C6.3129 21.405 6.14106 21.2332 6.14106 21.0212L6.14106 11.3474C6.14106 11.1354 6.3129 10.9636 6.52487 10.9636Z" fill="#969696"/>
<path fill-rule="evenodd" clip-rule="evenodd" d="M21.8776 10.9636C22.0896 10.9636 22.2614 11.1354 22.2614 11.3474L22.2614 21.0212C22.2614 21.2332 22.0896 21.405 21.8776 21.405C21.6656 21.405 21.4938 21.2332 21.4938 21.0212L21.4938 11.3474C21.4938 11.1354 21.6656 10.9636 21.8776 10.9636Z" fill="#969696"/>
<path fill-rule="evenodd" clip-rule="evenodd" d="M12.666 12.2166C12.878 12.2166 13.0498 12.3884 13.0498 12.6004L13.0498 19.7683C13.0498 19.9802 12.878 20.1521 12.666 20.1521C12.454 20.1521 12.2822 19.9802 12.2822 19.7683L12.2822 12.6004C12.2822 12.3884 12.454 12.2166 12.666 12.2166Z" fill="#969696"/>
<path fill-rule="evenodd" clip-rule="evenodd" d="M31.0892 12.2166C31.3012 12.2166 31.473 12.3884 31.473 12.6004L31.473 19.7683C31.473 19.9802 31.3012 20.1521 31.0892 20.1521C30.8772 20.1521 30.7054 19.9802 30.7054 19.7683L30.7054 12.6004C30.7054 12.3884 30.8772 12.2166 31.0892 12.2166Z" fill="#969696"/>
<path fill-rule="evenodd" clip-rule="evenodd" d="M37.2303 12.2166C37.4423 12.2166 37.6141 12.3884 37.6141 12.6004L37.6141 19.7683C37.6141 19.9802 37.4423 20.1521 37.2303 20.1521C37.0183 20.1521 36.8465 19.9802 36.8465 19.7683L36.8465 12.6004C36.8465 12.3884 37.0183 12.2166 37.2303 12.2166Z" fill="#969696"/>
<path fill-rule="evenodd" clip-rule="evenodd" d="M9.59543 6.36929C9.80741 6.36929 9.97925 6.54113 9.97925 6.75311L9.97925 25.6155C9.97925 25.8274 9.80741 25.9993 9.59543 25.9993C9.38346 25.9993 9.21161 25.8274 9.21161 25.6155L9.21161 6.75311C9.21161 6.54113 9.38345 6.36929 9.59543 6.36929Z" fill="#969696"/>
<path fill-rule="evenodd" clip-rule="evenodd" d="M40.3008 6.36929C40.5128 6.36929 40.6846 6.54113 40.6846 6.75311L40.6846 25.6155C40.6846 25.8274 40.5128 25.9993 40.3008 25.9993C40.0888 25.9993 39.917 25.8274 39.917 25.6155L39.917 6.75311C39.917 6.54113 40.0888 6.36929 40.3008 6.36929Z" fill="#969696"/>
<path fill-rule="evenodd" clip-rule="evenodd" d="M43.3714 4.17661C43.5833 4.17661 43.7552 4.34845 43.7552 4.56042L43.7552 27.8082C43.7552 28.0202 43.5833 28.192 43.3714 28.192C43.1594 28.192 42.9876 28.0202 42.9876 27.8082L42.9876 4.56042C42.9876 4.34845 43.1594 4.17661 43.3714 4.17661Z" fill="#969696"/>
<path fill-rule="evenodd" clip-rule="evenodd" d="M49.5124 4.17661C49.7244 4.17661 49.8962 4.34845 49.8962 4.56042L49.8962 27.8082C49.8962 28.0202 49.7244 28.192 49.5124 28.192C49.3004 28.192 49.1286 28.0202 49.1286 27.8082L49.1286 4.56042C49.1286 4.34845 49.3004 4.17661 49.5124 4.17661Z" fill="#969696"/>
<path fill-rule="evenodd" clip-rule="evenodd" d="M46.4419 1.67772e-08C46.6539 7.51141e-09 46.8257 0.171841 46.8257 0.383817L46.8257 31.9848C46.8257 32.1968 46.6539 32.3686 46.4419 32.3686C46.23 32.3686 46.0581 32.1968 46.0581 31.9848L46.0581 0.383817C46.0581 0.171841 46.23 2.6043e-08 46.4419 1.67772e-08Z" fill="#969696"/>
<path fill-rule="evenodd" clip-rule="evenodd" d="M52.583 8.35318C52.795 8.35318 52.9668 8.52502 52.9668 8.737L52.9668 23.6316C52.9668 23.8436 52.795 24.0154 52.583 24.0154C52.371 24.0154 52.1992 23.8436 52.1992 23.6316L52.1992 8.737C52.1992 8.52502 52.371 8.35318 52.583 8.35318Z" fill="#969696"/>
<path fill-rule="evenodd" clip-rule="evenodd" d="M55.6535 10.6503C55.8655 10.6503 56.0374 10.8222 56.0374 11.0341L56.0374 21.3345C56.0374 21.5465 55.8655 21.7183 55.6535 21.7183C55.4416 21.7183 55.2697 21.5465 55.2697 21.3345L55.2697 11.0341C55.2697 10.8222 55.4416 10.6503 55.6535 10.6503Z" fill="#969696"/>
<path fill-rule="evenodd" clip-rule="evenodd" d="M58.7241 12.6342C58.9361 12.6342 59.1079 12.806 59.1079 13.018L59.1079 19.3506C59.1079 19.5626 58.9361 19.7344 58.7241 19.7344C58.5121 19.7344 58.3403 19.5626 58.3403 19.3506L58.3403 13.018C58.3403 12.806 58.5121 12.6342 58.7241 12.6342Z" fill="#969696"/>
<path fill-rule="evenodd" clip-rule="evenodd" d="M64.865 15.349C65.077 15.349 65.2488 15.5208 65.2488 15.7328L65.2488 16.5314C65.2488 16.7434 65.077 16.9152 64.865 16.9152C64.653 16.9152 64.4812 16.7434 64.4812 16.5314L64.4812 15.7328C64.4812 15.5208 64.653 15.349 64.865 15.349Z" fill="#969696"/>
<path fill-rule="evenodd" clip-rule="evenodd" d="M83.2882 15.349C83.5002 15.349 83.6721 15.5208 83.6721 15.7328L83.6721 16.5314C83.6721 16.7434 83.5002 16.9152 83.2882 16.9152C83.0763 16.9152 82.9044 16.7434 82.9044 16.5314L82.9044 15.7328C82.9044 15.5208 83.0763 15.349 83.2882 15.349Z" fill="#969696"/>
<path fill-rule="evenodd" clip-rule="evenodd" d="M98.641 15.349C98.8529 15.349 99.0248 15.5208 99.0248 15.7328L99.0248 16.5314C99.0248 16.7434 98.8529 16.9152 98.641 16.9152C98.429 16.9152 98.2571 16.7434 98.2571 16.5314L98.2571 15.7328C98.2571 15.5208 98.429 15.349 98.641 15.349Z" fill="#969696"/>
<path fill-rule="evenodd" clip-rule="evenodd" d="M126.276 15.349C126.488 15.349 126.66 15.5208 126.66 15.7328L126.66 16.5314C126.66 16.7434 126.488 16.9152 126.276 16.9152C126.064 16.9152 125.892 16.7434 125.892 16.5314L125.892 15.7328C125.892 15.5208 126.064 15.349 126.276 15.349Z" fill="#969696"/>
<path fill-rule="evenodd" clip-rule="evenodd" d="M129.346 15.349C129.558 15.349 129.73 15.5208 129.73 15.7328L129.73 16.5314C129.73 16.7434 129.558 16.9152 129.346 16.9152C129.134 16.9152 128.963 16.7434 128.963 16.5314L128.963 15.7328C128.963 15.5208 129.134 15.349 129.346 15.349Z" fill="#969696"/>
<path fill-rule="evenodd" clip-rule="evenodd" d="M67.9356 14.3048C68.1476 14.3048 68.3194 14.4767 68.3194 14.6886L68.3194 17.6799C68.3194 17.8919 68.1476 18.0637 67.9356 18.0637C67.7236 18.0637 67.5518 17.8919 67.5518 17.6799L67.5518 14.6886C67.5518 14.4767 67.7236 14.3048 67.9356 14.3048Z" fill="#969696"/>
<path fill-rule="evenodd" clip-rule="evenodd" d="M80.2177 14.3048C80.4297 14.3048 80.6016 14.4767 80.6016 14.6886L80.6016 17.6799C80.6016 17.8919 80.4297 18.0637 80.2177 18.0637C80.0058 18.0637 79.8339 17.8919 79.8339 17.6799L79.8339 14.6886C79.8339 14.4767 80.0058 14.3048 80.2177 14.3048Z" fill="#969696"/>
<path fill-rule="evenodd" clip-rule="evenodd" d="M92.4998 14.3048C92.7118 14.3048 92.8837 14.4767 92.8837 14.6886L92.8837 17.6799C92.8837 17.8919 92.7118 18.0637 92.4998 18.0637C92.2879 18.0637 92.116 17.8919 92.116 17.6799L92.116 14.6886C92.116 14.4767 92.2879 14.3048 92.4998 14.3048Z" fill="#969696"/>
<path fill-rule="evenodd" clip-rule="evenodd" d="M89.4294 13.6783C89.6413 13.6783 89.8132 13.8502 89.8132 14.0622L89.8132 18.3064C89.8132 18.5184 89.6413 18.6903 89.4294 18.6903C89.2174 18.6903 89.0455 18.5184 89.0455 18.3064L89.0455 14.0622C89.0455 13.8502 89.2174 13.6783 89.4294 13.6783Z" fill="#969696"/>
<path fill-rule="evenodd" clip-rule="evenodd" d="M71.0061 10.9636C71.2181 10.9636 71.3899 11.1354 71.3899 11.3474L71.3899 21.0212C71.3899 21.2332 71.2181 21.405 71.0061 21.405C70.7941 21.405 70.6223 21.2332 70.6223 21.0212L70.6223 11.3474C70.6223 11.1354 70.7941 10.9636 71.0061 10.9636Z" fill="#969696"/>
<path fill-rule="evenodd" clip-rule="evenodd" d="M86.3588 10.9636C86.5708 10.9636 86.7426 11.1354 86.7426 11.3474L86.7426 21.0212C86.7426 21.2332 86.5708 21.405 86.3588 21.405C86.1468 21.405 85.975 21.2332 85.975 21.0212L85.975 11.3474C85.975 11.1354 86.1468 10.9636 86.3588 10.9636Z" fill="#969696"/>
<path fill-rule="evenodd" clip-rule="evenodd" d="M77.1472 12.2166C77.3592 12.2166 77.531 12.3884 77.531 12.6004L77.531 19.7683C77.531 19.9802 77.3592 20.1521 77.1472 20.1521C76.9352 20.1521 76.7634 19.9802 76.7634 19.7683L76.7634 12.6004C76.7634 12.3884 76.9352 12.2166 77.1472 12.2166Z" fill="#969696"/>
<path fill-rule="evenodd" clip-rule="evenodd" d="M95.5704 12.2166C95.7824 12.2166 95.9542 12.3884 95.9542 12.6004L95.9542 19.7683C95.9542 19.9802 95.7824 20.1521 95.5704 20.1521C95.3584 20.1521 95.1866 19.9802 95.1866 19.7683L95.1866 12.6004C95.1866 12.3884 95.3584 12.2166 95.5704 12.2166Z" fill="#969696"/>
<path fill-rule="evenodd" clip-rule="evenodd" d="M101.712 12.2166C101.923 12.2166 102.095 12.3884 102.095 12.6004L102.095 19.7683C102.095 19.9802 101.923 20.1521 101.712 20.1521C101.5 20.1521 101.328 19.9802 101.328 19.7683L101.328 12.6004C101.328 12.3884 101.5 12.2166 101.712 12.2166Z" fill="#969696"/>
<path fill-rule="evenodd" clip-rule="evenodd" d="M74.0766 6.36929C74.2886 6.36929 74.4604 6.54113 74.4604 6.75311L74.4605 25.6155C74.4605 25.8274 74.2886 25.9993 74.0766 25.9993C73.8647 25.9993 73.6928 25.8274 73.6928 25.6155L73.6928 6.75311C73.6928 6.54113 73.8647 6.36929 74.0766 6.36929Z" fill="#969696"/>
<path fill-rule="evenodd" clip-rule="evenodd" d="M104.782 6.36929C104.994 6.36929 105.166 6.54113 105.166 6.75311L105.166 25.6155C105.166 25.8274 104.994 25.9993 104.782 25.9993C104.57 25.9993 104.398 25.8274 104.398 25.6155L104.398 6.75311C104.398 6.54113 104.57 6.36929 104.782 6.36929Z" fill="#969696"/>
<path fill-rule="evenodd" clip-rule="evenodd" d="M107.853 4.17661C108.065 4.17661 108.236 4.34845 108.236 4.56042L108.236 27.8082C108.236 28.0202 108.065 28.192 107.853 28.192C107.641 28.192 107.469 28.0202 107.469 27.8082L107.469 4.56042C107.469 4.34845 107.641 4.17661 107.853 4.17661Z" fill="#969696"/>
<path fill-rule="evenodd" clip-rule="evenodd" d="M113.994 4.17661C114.206 4.17661 114.377 4.34845 114.377 4.56042L114.377 27.8082C114.377 28.0202 114.206 28.192 113.994 28.192C113.782 28.192 113.61 28.0202 113.61 27.8082L113.61 4.56042C113.61 4.34845 113.782 4.17661 113.994 4.17661Z" fill="#969696"/>
<path fill-rule="evenodd" clip-rule="evenodd" d="M110.923 1.67772e-08C111.135 7.51141e-09 111.307 0.171841 111.307 0.383817L111.307 31.9848C111.307 32.1968 111.135 32.3686 110.923 32.3686C110.711 32.3686 110.539 32.1968 110.539 31.9848L110.539 0.383817C110.539 0.171841 110.711 2.6043e-08 110.923 1.67772e-08Z" fill="#969696"/>
<path fill-rule="evenodd" clip-rule="evenodd" d="M117.064 8.35318C117.276 8.35318 117.448 8.52502 117.448 8.737L117.448 23.6316C117.448 23.8436 117.276 24.0154 117.064 24.0154C116.852 24.0154 116.68 23.8436 116.68 23.6316L116.68 8.737C116.68 8.52502 116.852 8.35318 117.064 8.35318Z" fill="#969696"/>
<path fill-rule="evenodd" clip-rule="evenodd" d="M120.135 10.6503C120.347 10.6503 120.519 10.8222 120.519 11.0341L120.519 21.3345C120.519 21.5465 120.347 21.7183 120.135 21.7183C119.923 21.7183 119.751 21.5465 119.751 21.3345L119.751 11.0341C119.751 10.8222 119.923 10.6503 120.135 10.6503Z" fill="#969696"/>
<path fill-rule="evenodd" clip-rule="evenodd" d="M123.205 12.6342C123.417 12.6342 123.589 12.806 123.589 13.018L123.589 19.3506C123.589 19.5626 123.417 19.7344 123.205 19.7344C122.993 19.7344 122.821 19.5626 122.821 19.3506L122.821 13.018C122.821 12.806 122.993 12.6342 123.205 12.6342Z" fill="#969696"/>
<path fill-rule="evenodd" clip-rule="evenodd" d="M120.135 15.349C120.347 15.349 120.519 15.5208 120.519 15.7328L120.519 16.5314C120.519 16.7434 120.347 16.9152 120.135 16.9152C119.923 16.9152 119.751 16.7434 119.751 16.5314L119.751 15.7328C119.751 15.5208 119.923 15.349 120.135 15.349Z" fill="#969696"/>
<path fill-rule="evenodd" clip-rule="evenodd" d="M138.558 15.349C138.77 15.349 138.942 15.5208 138.942 15.7328L138.942 16.5314C138.942 16.7434 138.77 16.9152 138.558 16.9152C138.346 16.9152 138.174 16.7434 138.174 16.5314L138.174 15.7328C138.174 15.5208 138.346 15.349 138.558 15.349Z" fill="#969696"/>
<path fill-rule="evenodd" clip-rule="evenodd" d="M153.911 15.349C154.123 15.349 154.295 15.5208 154.295 15.7328L154.295 16.5314C154.295 16.7434 154.123 16.9152 153.911 16.9152C153.699 16.9152 153.527 16.7434 153.527 16.5314L153.527 15.7328C153.527 15.5208 153.699 15.349 153.911 15.349Z" fill="#969696"/>
<path fill-rule="evenodd" clip-rule="evenodd" d="M181.546 15.349C181.758 15.349 181.93 15.5208 181.93 15.7328L181.93 16.5314C181.93 16.7434 181.758 16.9152 181.546 16.9152C181.334 16.9152 181.162 16.7434 181.162 16.5314L181.162 15.7328C181.162 15.5208 181.334 15.349 181.546 15.349Z" fill="#969696"/>
<path fill-rule="evenodd" clip-rule="evenodd" d="M184.616 15.349C184.828 15.349 185 15.5208 185 15.7328L185 16.5314C185 16.7434 184.828 16.9152 184.616 16.9152C184.404 16.9152 184.232 16.7434 184.232 16.5314L184.232 15.7328C184.232 15.5208 184.404 15.349 184.616 15.349Z" fill="#969696"/>
<path fill-rule="evenodd" clip-rule="evenodd" d="M123.205 14.3048C123.417 14.3048 123.589 14.4767 123.589 14.6886L123.589 17.6799C123.589 17.8919 123.417 18.0637 123.205 18.0637C122.994 18.0637 122.822 17.8919 122.822 17.6799L122.822 14.6886C122.822 14.4767 122.994 14.3048 123.205 14.3048Z" fill="#969696"/>
<path fill-rule="evenodd" clip-rule="evenodd" d="M135.488 14.3048C135.7 14.3048 135.871 14.4767 135.871 14.6886L135.871 17.6799C135.871 17.8919 135.7 18.0637 135.488 18.0637C135.276 18.0637 135.104 17.8919 135.104 17.6799L135.104 14.6886C135.104 14.4767 135.276 14.3048 135.488 14.3048Z" fill="#969696"/>
<path fill-rule="evenodd" clip-rule="evenodd" d="M147.77 14.3048C147.982 14.3048 148.154 14.4767 148.154 14.6886L148.154 17.6799C148.154 17.8919 147.982 18.0637 147.77 18.0637C147.558 18.0637 147.386 17.8919 147.386 17.6799L147.386 14.6886C147.386 14.4767 147.558 14.3048 147.77 14.3048Z" fill="#969696"/>
<path fill-rule="evenodd" clip-rule="evenodd" d="M144.699 13.6783C144.911 13.6783 145.083 13.8502 145.083 14.0622L145.083 18.3064C145.083 18.5184 144.911 18.6903 144.699 18.6903C144.487 18.6903 144.315 18.5184 144.315 18.3064L144.315 14.0622C144.315 13.8502 144.487 13.6783 144.699 13.6783Z" fill="#969696"/>
<path fill-rule="evenodd" clip-rule="evenodd" d="M126.276 10.9636C126.488 10.9636 126.66 11.1354 126.66 11.3474L126.66 21.0212C126.66 21.2332 126.488 21.405 126.276 21.405C126.064 21.405 125.892 21.2332 125.892 21.0212L125.892 11.3474C125.892 11.1354 126.064 10.9636 126.276 10.9636Z" fill="#969696"/>
<path fill-rule="evenodd" clip-rule="evenodd" d="M141.629 10.9636C141.841 10.9636 142.013 11.1354 142.013 11.3474L142.013 21.0212C142.013 21.2332 141.841 21.405 141.629 21.405C141.417 21.405 141.245 21.2332 141.245 21.0212L141.245 11.3474C141.245 11.1354 141.417 10.9636 141.629 10.9636Z" fill="#969696"/>
<path fill-rule="evenodd" clip-rule="evenodd" d="M132.417 12.2166C132.629 12.2166 132.801 12.3884 132.801 12.6004L132.801 19.7683C132.801 19.9802 132.629 20.1521 132.417 20.1521C132.205 20.1521 132.033 19.9802 132.033 19.7683L132.033 12.6004C132.033 12.3884 132.205 12.2166 132.417 12.2166Z" fill="#969696"/>
<path fill-rule="evenodd" clip-rule="evenodd" d="M150.84 12.2166C151.052 12.2166 151.224 12.3884 151.224 12.6004L151.224 19.7683C151.224 19.9802 151.052 20.1521 150.84 20.1521C150.628 20.1521 150.456 19.9802 150.456 19.7683L150.456 12.6004C150.456 12.3884 150.628 12.2166 150.84 12.2166Z" fill="#969696"/>
<path fill-rule="evenodd" clip-rule="evenodd" d="M156.981 12.2166C157.193 12.2166 157.365 12.3884 157.365 12.6004L157.365 19.7683C157.365 19.9802 157.193 20.1521 156.981 20.1521C156.769 20.1521 156.598 19.9802 156.598 19.7683L156.598 12.6004C156.598 12.3884 156.769 12.2166 156.981 12.2166Z" fill="#969696"/>
<path fill-rule="evenodd" clip-rule="evenodd" d="M129.347 6.36929C129.559 6.36929 129.73 6.54113 129.73 6.75311L129.73 25.6155C129.73 25.8274 129.559 25.9993 129.347 25.9993C129.135 25.9993 128.963 25.8274 128.963 25.6155L128.963 6.75311C128.963 6.54113 129.135 6.36929 129.347 6.36929Z" fill="#969696"/>
<path fill-rule="evenodd" clip-rule="evenodd" d="M160.052 6.36929C160.264 6.36929 160.436 6.54113 160.436 6.75311L160.436 25.6155C160.436 25.8274 160.264 25.9993 160.052 25.9993C159.84 25.9993 159.668 25.8274 159.668 25.6155L159.668 6.75311C159.668 6.54113 159.84 6.36929 160.052 6.36929Z" fill="#969696"/>
<path fill-rule="evenodd" clip-rule="evenodd" d="M163.123 4.17661C163.335 4.17661 163.506 4.34845 163.506 4.56042L163.506 27.8082C163.506 28.0202 163.335 28.192 163.123 28.192C162.911 28.192 162.739 28.0202 162.739 27.8082L162.739 4.56042C162.739 4.34845 162.911 4.17661 163.123 4.17661Z" fill="#969696"/>
<path fill-rule="evenodd" clip-rule="evenodd" d="M169.264 4.17661C169.475 4.17661 169.647 4.34845 169.647 4.56042L169.647 27.8082C169.647 28.0202 169.475 28.192 169.264 28.192C169.052 28.192 168.88 28.0202 168.88 27.8082L168.88 4.56042C168.88 4.34845 169.052 4.17661 169.264 4.17661Z" fill="#969696"/>
<path fill-rule="evenodd" clip-rule="evenodd" d="M166.193 1.67772e-08C166.405 7.51141e-09 166.577 0.171841 166.577 0.383817L166.577 31.9848C166.577 32.1968 166.405 32.3686 166.193 32.3686C165.981 32.3686 165.809 32.1968 165.809 31.9848L165.809 0.383817C165.809 0.171841 165.981 2.6043e-08 166.193 1.67772e-08Z" fill="#969696"/>
<path fill-rule="evenodd" clip-rule="evenodd" d="M172.334 8.35318C172.546 8.35318 172.718 8.52502 172.718 8.737L172.718 23.6316C172.718 23.8436 172.546 24.0154 172.334 24.0154C172.122 24.0154 171.95 23.8436 171.95 23.6316L171.95 8.737C171.95 8.52502 172.122 8.35318 172.334 8.35318Z" fill="#969696"/>
<path fill-rule="evenodd" clip-rule="evenodd" d="M175.405 10.6503C175.617 10.6503 175.788 10.8222 175.788 11.0341L175.788 21.3345C175.788 21.5465 175.617 21.7183 175.405 21.7183C175.193 21.7183 175.021 21.5465 175.021 21.3345L175.021 11.0341C175.021 10.8222 175.193 10.6503 175.405 10.6503Z" fill="#969696"/>
<path fill-rule="evenodd" clip-rule="evenodd" d="M178.475 12.6342C178.687 12.6342 178.859 12.806 178.859 13.018L178.859 19.3506C178.859 19.5626 178.687 19.7344 178.475 19.7344C178.263 19.7344 178.091 19.5626 178.091 19.3506L178.091 13.018C178.091 12.806 178.263 12.6342 178.475 12.6342Z" fill="#969696"/>
</svg>
