<svg width="18" height="17" viewBox="0 0 18 17" fill="none" xmlns="http://www.w3.org/2000/svg">
<path d="M9.00002 2.33335C7.23191 2.33335 5.53622 3.03573 4.28598 4.28598C3.03573 5.53622 2.33335 7.23191 2.33335 9.00002H4.83335C5.27538 9.00002 5.6993 9.17562 6.01187 9.48818C6.32443 9.80074 6.50002 10.2247 6.50002 10.6667V14.8334C6.50002 15.2754 6.32443 15.6993 6.01187 16.0119C5.6993 16.3244 5.27538 16.5 4.83335 16.5H2.33335C1.89133 16.5 1.4674 16.3244 1.15484 16.0119C0.842282 15.6993 0.666687 15.2754 0.666687 14.8334V9.00002C0.666687 4.39752 4.39752 0.666687 9.00002 0.666687C13.6025 0.666687 17.3334 4.39752 17.3334 9.00002V14.8334C17.3334 15.2754 17.1578 15.6993 16.8452 16.0119C16.5326 16.3244 16.1087 16.5 15.6667 16.5H13.1667C12.7247 16.5 12.3007 16.3244 11.9882 16.0119C11.6756 15.6993 11.5 15.2754 11.5 14.8334V10.6667C11.5 10.2247 11.6756 9.80074 11.9882 9.48818C12.3007 9.17562 12.7247 9.00002 13.1667 9.00002H15.6667C15.6667 7.23191 14.9643 5.53622 13.7141 4.28598C12.4638 3.03573 10.7681 2.33335 9.00002 2.33335ZM2.33335 10.6667V14.8334H4.83335V10.6667H2.33335ZM13.1667 10.6667V14.8334H15.6667V10.6667H13.1667Z" fill="#F34901"/>
</svg>
