<svg width="25" height="24" viewBox="0 0 25 24" fill="none" xmlns="http://www.w3.org/2000/svg">
<circle cx="22.5" cy="2.5" r="2.5" fill="#F10000"/>
<path d="M11 3.375C11.3647 3.375 11.7144 3.51987 11.9723 3.77773C12.2301 4.03559 12.375 4.38533 12.375 4.75V6.125H9.625V4.75C9.625 4.38533 9.76987 4.03559 10.0277 3.77773C10.2856 3.51987 10.6353 3.375 11 3.375Z" fill="black"/>
<path d="M5.5 18.5H16.5V11.625C16.5 10.1663 15.9205 8.76736 14.8891 7.73591C13.8576 6.70446 12.4587 6.125 11 6.125C9.54131 6.125 8.14236 6.70446 7.11091 7.73591C6.07946 8.76736 5.5 10.1663 5.5 11.625V18.5ZM11 4.75C12.8234 4.75 14.572 5.47433 15.8614 6.76364C17.1507 8.05295 17.875 9.80164 17.875 11.625V19.875H4.125V11.625C4.125 9.80164 4.84933 8.05295 6.13864 6.76364C7.42795 5.47433 9.17664 4.75 11 4.75V4.75Z" fill="#222222"/>
<path d="M2.0625 18.5H19.9375C20.3958 18.5 20.625 18.7292 20.625 19.1875C20.625 19.6458 20.3958 19.875 19.9375 19.875H2.0625C1.60417 19.875 1.375 19.6458 1.375 19.1875C1.375 18.7292 1.60417 18.5 2.0625 18.5ZM9.625 21.25H12.375C12.375 21.6147 12.2301 21.9644 11.9723 22.2223C11.7144 22.4801 11.3647 22.625 11 22.625C10.6353 22.625 10.2856 22.4801 10.0277 22.2223C9.76987 21.9644 9.625 21.6147 9.625 21.25Z" fill="black"/>
</svg>
