<svg width="20" height="19" viewBox="0 0 20 19" fill="none" xmlns="http://www.w3.org/2000/svg">
<path fill="#F34901" d="M10 3.43506L9.10406 2.51416C6.99863 0.350083 3.14268 1.09712 1.75045 3.81605C1.09567 5.09479 0.948438 6.94058 2.14286 9.29697C3.29322 11.5664 5.68459 14.2831 10 17.2432C14.3154 14.2831 16.7068 11.5664 17.8571 9.29697C19.0516 6.94058 18.9043 5.09479 18.2496 3.81605C16.8573 1.09712 13.0014 0.350083 10.8959 2.51416L10 3.43506ZM10 18.75C-9.16641 6.08551 4.09845 -3.80108 9.7804 1.42885C9.85493 1.49746 9.92816 1.56867 10 1.64251C10.0718 1.56867 10.1451 1.49747 10.2196 1.42886C15.9015 -3.8011 29.1664 6.0855 10 18.75Z" />
</svg>
