<svg width="16" height="16" viewBox="0 0 16 16" fill="none" xmlns="http://www.w3.org/2000/svg">
<path d="M11.75 3.5H15.05C15.2985 3.5 15.5 3.70146 15.5 3.94996C15.5 4.19847 15.2985 4.39993 15.05 4.39993H14V14.75C14 14.9489 13.921 15.1397 13.7803 15.2803C13.6397 15.421 13.4489 15.5 13.25 15.5H2.75C2.55109 15.5 2.36032 15.421 2.21967 15.2803C2.07902 15.1397 2 14.9489 2 14.75V4.39993H0.949963C0.701455 4.39993 0.5 4.19847 0.5 3.94996C0.5 3.70146 0.701456 3.5 0.949964 3.5H4.25V1.25C4.25 1.05109 4.32902 0.860322 4.46967 0.71967C4.61032 0.579018 4.80109 0.5 5 0.5H11C11.1989 0.5 11.3897 0.579018 11.5303 0.71967C11.671 0.860322 11.75 1.05109 11.75 1.25V3.5ZM13 4.39993H3V14.4716H13V4.39993ZM5.30015 1.4109V3.49993H10.7001V1.4109H5.30015Z" fill="#222222"/>
</svg>
