<svg width="17" height="17" viewBox="0 0 17 17" fill="none" xmlns="http://www.w3.org/2000/svg">
<path d="M15.9349 4.15998L12.9999 1.20999C12.806 1.01702 12.5435 0.908691 12.2699 0.908691C11.9963 0.908691 11.7339 1.01702 11.5399 1.20999L1.13491 11.6L0.184906 15.7C0.152134 15.8499 0.153258 16.0052 0.188194 16.1546C0.223131 16.3039 0.290998 16.4436 0.386838 16.5634C0.482678 16.6832 0.604069 16.7801 0.742145 16.847C0.88022 16.9139 1.03149 16.9491 1.18491 16.95C1.25639 16.9572 1.32842 16.9572 1.39991 16.95L5.54491 16L15.9349 5.61999C16.1279 5.42604 16.2362 5.16358 16.2362 4.88999C16.2362 4.61639 16.1279 4.35393 15.9349 4.15998ZM5.04491 15.1L1.15991 15.915L2.04491 12.105L9.82991 4.34999L12.8299 7.34999L5.04491 15.1ZM13.4999 6.62499L10.4999 3.62498L12.2399 1.89499L15.1899 4.89499L13.4999 6.62499Z" fill="#222222"/>
</svg>
