<svg width="20" height="18" viewBox="0 0 20 18" fill="none" xmlns="http://www.w3.org/2000/svg">
<path d="M14.9019 15.0809C13.4362 16.0105 11.7358 16.5028 10.0002 16.5001C5.50688 16.5001 1.76854 13.2667 0.984375 9.00006C1.34273 7.05899 2.31907 5.2858 3.76771 3.94506L1.16021 1.34006L2.33938 0.160889L18.8385 16.6609L17.6594 17.8392L14.901 15.0809H14.9019ZM4.94604 5.12505C3.81355 6.15471 3.02464 7.50737 2.68604 9.00006C2.94629 10.1388 3.46876 11.201 4.21188 12.1022C4.95499 13.0034 5.89823 13.7187 6.9665 14.1911C8.03477 14.6636 9.19858 14.8801 10.3653 14.8235C11.532 14.7669 12.6694 14.4387 13.6869 13.8651L11.9969 12.1751C11.2775 12.6282 10.4254 12.8235 9.58041 12.7288C8.73544 12.634 7.94774 12.255 7.34652 11.6537C6.74529 11.0525 6.36623 10.2648 6.27151 9.41986C6.17679 8.57489 6.37203 7.72281 6.82521 7.00339L4.94604 5.12505ZM10.7619 10.9401L8.06021 8.23839C7.91193 8.61584 7.87703 9.02835 7.9598 9.42534C8.04256 9.82233 8.23939 10.1865 8.52614 10.4733C8.81289 10.76 9.1771 10.9569 9.57409 11.0396C9.97108 11.1224 10.3836 11.0875 10.761 10.9392L10.7619 10.9401ZM17.3394 12.8267L16.1469 11.6351C16.7039 10.8411 17.1005 9.94604 17.3144 9.00006C17.0879 8.00816 16.6621 7.07268 16.0628 6.25047C15.4636 5.42826 14.7034 4.73649 13.8284 4.21723C12.9535 3.69796 11.9821 3.36203 10.9733 3.22986C9.96452 3.09769 8.93938 3.17204 7.96021 3.44839L6.64521 2.13339C7.68438 1.72506 8.81688 1.50006 10.0002 1.50006C14.4935 1.50006 18.2319 4.73339 19.016 9.00006C18.7607 10.3881 18.1868 11.698 17.3394 12.8267ZM9.76937 5.25672C10.2998 5.22394 10.8311 5.30428 11.3282 5.4924C11.8252 5.68053 12.2766 5.97215 12.6523 6.34793C13.0281 6.72371 13.3197 7.17508 13.5079 7.6721C13.696 8.16913 13.7763 8.70046 13.7435 9.23089L9.76854 5.25672H9.76937Z" fill="#C4C4C4"/>
</svg>
