<svg width="25" height="24" viewBox="0 0 25 24" fill="none" xmlns="http://www.w3.org/2000/svg">
<path d="M10 7.43506L9.10406 6.51416C6.99863 4.35008 3.14268 5.09712 1.75045 7.81605C1.09567 9.09479 0.948438 10.9406 2.14286 13.297C3.29322 15.5664 5.68459 18.2831 10 21.2432C14.3154 18.2831 16.7068 15.5664 17.8571 13.297C19.0516 10.9406 18.9043 9.09479 18.2496 7.81605C16.8573 5.09712 13.0014 4.35008 10.8959 6.51416L10 7.43506ZM10 22.75C-9.16641 10.0855 4.09845 0.198915 9.7804 5.42885C9.85493 5.49746 9.92816 5.56867 10 5.64251C10.0718 5.56867 10.1451 5.49747 10.2196 5.42886C15.9015 0.198903 29.1664 10.0855 10 22.75Z" fill="#222222"/>
<circle cx="22.5" cy="2.5" r="2.5" fill="#F10000"/>
</svg>
