<svg width="19" height="19" viewBox="0 0 19 19" fill="none" xmlns="http://www.w3.org/2000/svg">
<path d="M0.666687 18.3333C0.666687 16.5652 1.36907 14.8695 2.61931 13.6193C3.86955 12.3691 5.56524 11.6667 7.33335 11.6667C9.10146 11.6667 10.7972 12.3691 12.0474 13.6193C13.2976 14.8695 14 16.5652 14 18.3333H0.666687ZM7.33335 10.8333C4.57085 10.8333 2.33335 8.59584 2.33335 5.83334C2.33335 3.07084 4.57085 0.833344 7.33335 0.833344C10.0959 0.833344 12.3334 3.07084 12.3334 5.83334C12.3334 8.59584 10.0959 10.8333 7.33335 10.8333ZM13.4692 12.6942C14.7439 13.0218 15.8827 13.7432 16.7236 14.7557C17.5645 15.7682 18.0645 17.0202 18.1525 18.3333H15.6667C15.6667 16.1583 14.8334 14.1783 13.4692 12.6942ZM11.7834 10.7975C12.4817 10.1729 13.0401 9.40779 13.4222 8.5523C13.8042 7.69681 14.0011 6.77025 14 5.83334C14.0018 4.69457 13.7105 3.57449 13.1542 2.58084C14.098 2.7705 14.9471 3.28115 15.5571 4.02601C16.167 4.77086 16.5002 5.70395 16.5 6.66668C16.5002 7.2604 16.3736 7.84731 16.1284 8.38807C15.8833 8.92884 15.5255 9.41096 15.0788 9.80213C14.6322 10.1933 14.1071 10.4845 13.5387 10.6561C12.9704 10.8278 12.3719 10.876 11.7834 10.7975Z" fill="#F34901"/>
</svg>
