<svg width="67" height="61" viewBox="0 0 67 61" fill="none" xmlns="http://www.w3.org/2000/svg">
<path d="M56.8971 36.9265C57.4494 36.9265 57.8971 37.3742 57.8971 37.9265V45.9118H65.8824C66.4347 45.9118 66.8824 46.3595 66.8824 46.9118V50.902C66.8824 51.4542 66.4347 51.902 65.8824 51.902H57.8971V59.8872C57.8971 60.4395 57.4494 60.8872 56.8971 60.8872H52.9069C52.3546 60.8872 51.9069 60.4395 51.9069 59.8872V51.902H43.9216C43.3693 51.902 42.9216 51.4542 42.9216 50.902V46.9118C42.9216 46.3595 43.3693 45.9118 43.9216 45.9118H51.9069V37.9265C51.9069 37.3742 52.3546 36.9265 52.9069 36.9265H56.8971ZM57.9211 0.985291C59.5624 0.985291 60.8922 2.31811 60.8922 3.95942V29.9363C60.8922 30.4886 60.4445 30.9363 59.8922 30.9363H55.902C55.3497 30.9363 54.902 30.4886 54.902 29.9363V6.97549H6.98043V48.9039L36.2243 19.6629C36.6148 19.2724 37.248 19.2724 37.6385 19.6629L45.6238 27.6483C45.8113 27.8358 45.9167 28.0902 45.9167 28.3554V34.0001C45.9167 34.891 44.8396 35.3372 44.2096 34.7072L36.9314 27.429L15.4476 48.9069H35.9314C36.4837 48.9069 36.9314 49.3546 36.9314 49.9069V53.8971C36.9314 54.4493 36.4837 54.8971 35.9314 54.8971H3.96137C3.1731 54.8963 2.41739 54.5826 1.86028 54.0249C1.30317 53.4672 0.990234 52.7112 0.990234 51.9229V3.95942C0.995716 3.17284 1.31041 2.41999 1.86634 1.86351C2.42227 1.30702 3.1748 0.991564 3.96137 0.985291H57.9211ZM18.9608 12.9657C20.5495 12.9657 22.0732 13.5968 23.1965 14.7202C24.3199 15.8435 24.951 17.3672 24.951 18.9559C24.951 20.5446 24.3199 22.0682 23.1965 23.1916C22.0732 24.315 20.5495 24.9461 18.9608 24.9461C17.3721 24.9461 15.8485 24.315 14.7251 23.1916C13.6017 22.0682 12.9706 20.5446 12.9706 18.9559C12.9706 17.3672 13.6017 15.8435 14.7251 14.7202C15.8485 13.5968 17.3721 12.9657 18.9608 12.9657Z" fill="#969696"/>
</svg>
