<svg width="18" height="19" viewBox="0 0 18 19" fill="none" xmlns="http://www.w3.org/2000/svg">
<path d="M15.364 3.13597L13.95 4.54997C12.8049 3.40477 11.2982 2.69203 9.6865 2.53321C8.07482 2.37439 6.45794 2.7793 5.11134 3.67896C3.76474 4.57862 2.77174 5.91736 2.30154 7.46708C1.83134 9.0168 1.91302 10.6816 2.53268 12.1779C3.15234 13.6741 4.27162 14.9092 5.69983 15.6727C7.12803 16.4362 8.77679 16.6809 10.3652 16.3651C11.9536 16.0492 13.3833 15.1924 14.4108 13.9406C15.4382 12.6888 15.9999 11.1195 16 9.49997H18C18 11.5822 17.278 13.5999 15.957 15.2095C14.6361 16.819 12.7979 17.9208 10.7557 18.327C8.71355 18.7332 6.5937 18.4187 4.75737 17.4372C2.92104 16.4556 1.48187 14.8677 0.685061 12.944C-0.111747 11.0203 -0.216886 8.8798 0.387558 6.88727C0.992002 4.89473 2.26863 3.17343 3.99992 2.01663C5.73121 0.859837 7.81004 0.339131 9.88221 0.543235C11.9544 0.747339 13.8917 1.66363 15.364 3.13597Z" fill="#969696"/>
</svg>
