<svg width="20" height="20" viewBox="0 0 20 20" fill="none" xmlns="http://www.w3.org/2000/svg">
<path d="M11.875 16.25C11.875 17.2855 11.0355 18.125 10 18.125C8.96447 18.125 8.125 17.2855 8.125 16.25C8.125 15.2145 8.96447 14.375 10 14.375C11.0355 14.375 11.875 15.2145 11.875 16.25ZM11.875 10C11.875 11.0355 11.0355 11.875 10 11.875C8.96447 11.875 8.125 11.0355 8.125 10C8.125 8.96447 8.96447 8.125 10 8.125C11.0355 8.125 11.875 8.96447 11.875 10ZM11.875 3.75C11.875 4.78553 11.0355 5.625 10 5.625C8.96447 5.625 8.125 4.78553 8.125 3.75C8.125 2.71447 8.96447 1.875 10 1.875C11.0355 1.875 11.875 2.71447 11.875 3.75Z" fill="#222222"/>
</svg>
