<svg width="206" height="206" viewBox="0 0 206 206" fill="none" xmlns="http://www.w3.org/2000/svg">
<path d="M97.0011 47.3156C97.8948 40.2672 108.105 40.2672 108.999 47.3156C109.719 52.9972 117.2 54.5872 120.169 49.6898C123.852 43.6142 133.18 47.7672 131.129 54.5697C129.476 60.0531 135.663 64.5482 140.368 61.2818C146.204 57.2296 153.036 64.8175 148.396 70.1979C144.655 74.5349 148.479 81.1579 154.105 80.0873C161.085 78.7591 164.24 88.4699 157.813 91.4978C152.632 93.9386 153.431 101.544 159.006 102.855C165.923 104.48 164.856 114.635 157.752 114.787C152.027 114.909 149.663 122.182 154.224 125.647C159.881 129.945 154.776 138.788 148.225 136.037C142.944 133.82 137.827 139.504 140.584 144.524C144.004 150.751 135.743 156.753 130.877 151.576C126.955 147.403 119.969 150.513 120.445 156.22C121.037 163.301 111.049 165.423 108.71 158.715C106.824 153.307 99.1762 153.307 97.2903 158.715C94.9508 165.423 84.9634 163.301 85.5548 156.22C86.0315 150.513 79.045 147.403 75.1227 151.576C70.2568 156.753 61.9963 150.751 65.4164 144.524C68.1731 139.504 63.0559 133.82 57.7753 136.037C51.2244 138.788 46.1192 129.945 51.7765 125.647C56.3367 122.182 53.9734 114.909 48.2477 114.787C41.1445 114.635 40.0772 104.48 46.9936 102.855C52.5687 101.544 53.3681 93.9386 48.1872 91.4978C41.7599 88.4699 44.9151 78.7591 51.8947 80.0873C57.5208 81.1579 61.3446 74.5349 57.6044 70.1979C52.9643 64.8175 59.7965 57.2296 65.6325 61.2818C70.3367 64.5482 76.5237 60.0531 74.8709 54.5697C72.8204 47.7672 82.1481 43.6142 85.8314 49.6898C88.8003 54.5872 96.2808 52.9972 97.0011 47.3156Z" fill="#F34901"/>
<path d="M84.6068 121.465L82.983 122.402L80.4088 117.943L75.8486 120.576L78.4228 125.035L76.8058 125.969L71.0949 116.077L72.7119 115.143L75.0478 119.189L79.608 116.556L77.2721 112.51L78.8959 111.573L84.6068 121.465ZM91.5118 112.471C92.2175 113.694 92.4548 114.829 92.2237 115.876C91.9926 116.924 91.3177 117.771 90.1991 118.416C89.4999 118.82 88.7908 119.019 88.0718 119.013C87.3527 119.007 86.6783 118.792 86.0485 118.368C85.4187 117.944 84.8785 117.341 84.428 116.561C83.7275 115.348 83.4918 114.221 83.721 113.18C83.9503 112.14 84.631 111.293 85.7631 110.639C86.8456 110.014 87.9045 109.869 88.9396 110.204C89.9721 110.534 90.8295 111.29 91.5118 112.471ZM86.0653 115.616C87.0627 117.343 88.1996 117.839 89.4761 117.102C90.7391 116.373 90.8719 115.144 89.8745 113.417C88.8875 111.707 87.758 111.22 86.486 111.954C85.8185 112.339 85.4612 112.84 85.4142 113.457C85.3717 114.071 85.5887 114.79 86.0653 115.616ZM98.7937 105.849C99.3041 106.734 99.0962 107.566 98.1701 108.348L98.2013 108.402C98.8177 108.136 99.3652 108.063 99.8438 108.184C100.322 108.305 100.698 108.602 100.972 109.075C101.381 109.784 101.425 110.486 101.105 111.181C100.787 111.87 100.114 112.511 99.0857 113.105L95.5133 115.168L91.193 107.685L94.7518 105.63C96.7094 104.5 98.0567 104.573 98.7937 105.849ZM99.2866 109.922C99.0783 109.561 98.7913 109.387 98.4257 109.4C98.0575 109.408 97.5938 109.573 97.0345 109.896L95.2009 110.955L96.4236 113.073L98.2977 111.99C99.3893 111.36 99.7189 110.671 99.2866 109.922ZM97.2818 106.903C97.1099 106.605 96.869 106.459 96.5589 106.463C96.2507 106.461 95.8666 106.592 95.4065 106.858L93.4783 107.971L94.5173 109.771L96.2088 108.794C96.741 108.487 97.1057 108.186 97.3027 107.892C97.4971 107.593 97.4901 107.264 97.2818 106.903ZM101.091 101.97L103.306 105.806C103.564 106.253 103.907 106.93 104.335 107.837L104.738 99.8644L106.68 98.7433L111 106.226L109.471 107.109L107.295 103.341C107.176 103.133 106.993 102.791 106.747 102.313C106.506 101.833 106.333 101.481 106.229 101.259L105.831 109.211L103.889 110.332L99.5691 102.849L101.091 101.97ZM110.536 96.5168L112.271 99.5208L115.796 97.4856L114.061 94.4816L115.651 93.5636L119.972 101.047L118.382 101.965L116.519 98.7373L112.994 100.772L114.857 104L113.267 104.918L108.947 97.4347L110.536 96.5168ZM122.573 89.5676L124.318 88.5597L123.309 93.9511L128.903 95.8904L127.076 96.9451L121.65 95.0166L123.842 98.8123L122.252 99.7302L117.932 92.2472L119.521 91.3293L121.619 94.9625L122.573 89.5676ZM134.823 92.4724L133.903 91.6141L133.849 91.6453C133.751 92.3092 133.568 92.8301 133.299 93.2079C133.027 93.5812 132.605 93.9333 132.032 94.264C131.297 94.6885 130.607 94.822 129.963 94.6647C129.323 94.5048 128.794 94.0617 128.375 93.3355C127.929 92.5642 127.88 91.8169 128.226 91.0938C128.572 90.3707 129.322 89.6525 130.474 88.9393L131.742 88.1526L131.512 87.7535C131.236 87.2753 130.917 86.9841 130.556 86.8798C130.197 86.7683 129.783 86.848 129.314 87.1188C128.931 87.3402 128.596 87.6088 128.309 87.9247C128.022 88.2406 127.761 88.569 127.525 88.9098L126.354 88.07C126.638 87.6237 126.99 87.207 127.41 86.8201C127.827 86.4287 128.25 86.1093 128.679 85.8619C129.63 85.3124 130.467 85.1059 131.19 85.2422C131.916 85.3759 132.536 85.8871 133.049 86.7756L135.959 91.8162L134.823 92.4724ZM131.83 92.7571C132.407 92.4238 132.777 91.9967 132.939 91.4759C133.104 90.948 133.018 90.3932 132.682 89.8113L132.307 89.1618L131.37 89.7571C130.636 90.2164 130.164 90.6578 129.951 91.0813C129.74 91.4976 129.768 91.9358 130.033 92.3959C130.226 92.7297 130.475 92.9317 130.78 93.0021C131.083 93.0679 131.433 92.9863 131.83 92.7571Z" fill="white"/>
</svg>
