<svg width="12" height="12" viewBox="0 0 12 12" fill="blue" xmlns="http://www.w3.org/2000/svg">
<path d="M6 0.5C6.3797 0.5 6.6875 0.807804 6.6875 1.1875V5.3125H10.8125C11.1922 5.3125 11.5 5.6203 11.5 6C11.5 6.3797 11.1922 6.6875 10.8125 6.6875H6.6875V10.8125C6.6875 11.1922 6.3797 11.5 6 11.5C5.6203 11.5 5.3125 11.1922 5.3125 10.8125V6.6875H1.1875C0.807804 6.6875 0.5 6.3797 0.5 6C0.5 5.6203 0.807804 5.3125 1.1875 5.3125H5.3125V1.1875C5.3125 0.807804 5.6203 0.5 6 0.5Z" fill="white" stroke="white" stroke-width="0.5" stroke-linecap="round"/>
</svg>
