<svg width="551" height="130" viewBox="0 0 551 130" fill="none" xmlns="http://www.w3.org/2000/svg">
<path d="M0.8 0.599997H51.2V51H42.776V9.024H9.224V51H0.8V0.599997ZM79.928 0.0959988C83.48 0.0959988 86.816 0.767999 89.936 2.112C93.104 3.456 95.864 5.28 98.216 7.584C100.616 9.888 102.512 12.6 103.904 15.72C105.296 18.84 105.992 22.176 105.992 25.728C105.992 29.28 105.296 32.616 103.904 35.736C102.512 38.856 100.616 41.592 98.216 43.944C95.864 46.248 93.104 48.072 89.936 49.416C86.816 50.76 83.48 51.432 79.928 51.432C76.328 51.432 72.944 50.76 69.776 49.416C66.608 48.072 63.824 46.248 61.424 43.944C59.072 41.592 57.2 38.856 55.808 35.736C54.416 32.616 53.72 29.28 53.72 25.728C53.72 22.176 54.416 18.84 55.808 15.72C57.2 12.6 59.072 9.888 61.424 7.584C63.824 5.28 66.608 3.456 69.776 2.112C72.944 0.767999 76.328 0.0959988 79.928 0.0959988ZM62.216 25.728C62.216 28.128 62.672 30.384 63.584 32.496C64.544 34.608 65.816 36.456 67.4 38.04C69.032 39.576 70.904 40.8 73.016 41.712C75.176 42.624 77.48 43.08 79.928 43.08C82.328 43.08 84.584 42.624 86.696 41.712C88.856 40.8 90.728 39.576 92.312 38.04C93.896 36.456 95.144 34.608 96.056 32.496C97.016 30.384 97.496 28.128 97.496 25.728C97.496 23.328 97.016 21.096 96.056 19.032C95.144 16.92 93.896 15.096 92.312 13.56C90.728 11.976 88.856 10.728 86.696 9.816C84.584 8.904 82.328 8.448 79.928 8.448C77.48 8.448 75.176 8.904 73.016 9.816C70.904 10.728 69.032 11.976 67.4 13.56C65.816 15.096 64.544 16.92 63.584 19.032C62.672 21.096 62.216 23.328 62.216 25.728ZM150.279 0.599997V34.224H116.943V51H108.519V0.599997H150.279ZM141.855 25.8V9.024H116.943V25.8H141.855ZM153.301 0.599997H203.629V25.8H195.205V9.024H182.677V51H174.253V9.024H161.725V25.8H153.301V0.599997ZM206.812 51L222.076 0.599997H254.188L269.452 51H260.668L255.772 34.224H220.492L215.596 51H206.812ZM223.228 25.8H253.036L248.14 9.024H228.124L223.228 25.8ZM286.805 0.599997H317.765V51H309.341V9.024H292.565L281.117 51H272.333L286.805 0.599997ZM400.583 79.6L425.783 94.72L451.343 79.6H459.767V130H451.343V89.608L425.783 104.8L400.583 89.608V130H392.159V79.6H400.583ZM471.81 79.6V111.856L497.082 87.592V79.6H505.506V130H497.082V98.968L471.954 123.304L471.81 130H463.386V79.6H471.81ZM550.849 79.6V113.224H517.513V130H509.089V79.6H550.849ZM542.425 104.8V88.024H517.513V104.8H542.425Z" fill="black"/>
<path d="M0.8 79.6H9.224V113.224H12.824L22.544 79.6H31.04L21.392 113.296H39.176V130H30.824V121.576H9.224V130H0.8V79.6ZM42.425 79.6H50.849V113.152H77.921V79.6H86.345V130H77.921V121.576H50.849V130H42.425V79.6ZM98.3803 79.6V111.856L123.652 87.592V79.6H132.076V130H123.652V98.968L98.5243 123.304L98.3803 130H89.9563V79.6H98.3803ZM135.299 130V113.224H153.083L143.435 79.6H151.931L161.651 113.152H165.251V79.6H173.675V113.152H177.275L186.995 79.6H195.491L185.843 113.224H203.627V130H195.275V121.576H173.675V130H165.251V121.576H143.651V130H135.299ZM206.886 79.6H215.31V113.152H242.382V79.6H250.806V130H242.382V121.576H215.31V130H206.886V79.6ZM254.417 79.6H262.841V96.376H290.273V130H254.417V79.6ZM298.481 79.6H306.905V130H298.481V79.6ZM262.841 104.8V121.576H281.849V104.8H262.841ZM310.456 79.6H318.88V111.856L344.152 87.592V79.6H352.576V130H344.152V98.968L319.024 123.304L318.88 130H310.456V79.6ZM344.08 66.352V74.56H318.664V66.352H344.08Z" fill="#F34901"/>
</svg>
