<svg width="18" height="18" viewBox="0 0 18 18" fill="none" xmlns="http://www.w3.org/2000/svg">
<path d="M1.70088 15.2423L1.07192 14.935L1.70088 15.2423ZM2.32985 15.5495C3.02644 14.1236 4.82178 12.4222 9.00043 12.4222V11.0222C4.37856 11.0222 2.04107 12.9512 1.07192 14.935L2.32985 15.5495ZM9.00043 12.4222C13.1791 12.4222 14.9744 14.1236 15.671 15.5495L16.9289 14.935C15.9598 12.9512 13.6223 11.0222 9.00043 11.0222V12.4222ZM14.7782 16.4666H3.22266V17.8666H14.7782V16.4666ZM15.671 15.5495C15.7806 15.7737 15.741 15.9592 15.6014 16.1237C15.4423 16.3111 15.1424 16.4666 14.7782 16.4666V17.8666C15.5186 17.8666 16.222 17.5562 16.6688 17.0296C17.1352 16.48 17.3043 15.7033 16.9289 14.935L15.671 15.5495ZM1.07192 14.935C0.696613 15.7033 0.865695 16.48 1.33202 17.0296C1.77892 17.5562 2.48232 17.8666 3.22266 17.8666V16.4666C2.85843 16.4666 2.55852 16.3111 2.39946 16.1237C2.25984 15.9592 2.22032 15.7737 2.32985 15.5495L1.07192 14.935Z" fill="#222222"/>
<path d="M12.9663 4.72209C12.9663 6.91282 11.1904 8.68875 8.99967 8.68875C6.80894 8.68875 5.03301 6.91282 5.03301 4.72209C5.03301 2.53136 6.80894 0.75542 8.99967 0.75542C11.1904 0.75542 12.9663 2.53136 12.9663 4.72209Z" stroke="#222222" stroke-width="1.4"/>
</svg>
