<svg width="14" height="19" viewBox="0 0 14 19" fill="none" xmlns="http://www.w3.org/2000/svg">
<path d="M0.333008 18.3333C0.333008 16.5651 1.03539 14.8695 2.28563 13.6192C3.53587 12.369 5.23156 11.6666 6.99967 11.6666C8.76778 11.6666 10.4635 12.369 11.7137 13.6192C12.964 14.8695 13.6663 16.5651 13.6663 18.3333H11.9997C11.9997 17.0072 11.4729 15.7354 10.5352 14.7977C9.59752 13.86 8.32576 13.3333 6.99967 13.3333C5.67359 13.3333 4.40182 13.86 3.46414 14.7977C2.52646 15.7354 1.99967 17.0072 1.99967 18.3333H0.333008ZM6.99967 10.8333C4.23717 10.8333 1.99967 8.59575 1.99967 5.83325C1.99967 3.07075 4.23717 0.833252 6.99967 0.833252C9.76217 0.833252 11.9997 3.07075 11.9997 5.83325C11.9997 8.59575 9.76217 10.8333 6.99967 10.8333ZM6.99967 9.16659C8.84134 9.16659 10.333 7.67492 10.333 5.83325C10.333 3.99159 8.84134 2.49992 6.99967 2.49992C5.15801 2.49992 3.66634 3.99159 3.66634 5.83325C3.66634 7.67492 5.15801 9.16659 6.99967 9.16659Z" fill="white"/>
</svg>
