<svg width="19" height="19" viewBox="0 0 19 19" fill="none" xmlns="http://www.w3.org/2000/svg">
<path d="M0.666992 18.3333C0.666992 16.5651 1.36937 14.8695 2.61961 13.6192C3.86986 12.369 5.56555 11.6666 7.33366 11.6666C9.10177 11.6666 10.7975 12.369 12.0477 13.6192C13.2979 14.8695 14.0003 16.5651 14.0003 18.3333H12.3337C12.3337 17.0072 11.8069 15.7354 10.8692 14.7977C9.93151 13.86 8.65974 13.3333 7.33366 13.3333C6.00758 13.3333 4.73581 13.86 3.79812 14.7977C2.86044 15.7354 2.33366 17.0072 2.33366 18.3333H0.666992ZM7.33366 10.8333C4.57116 10.8333 2.33366 8.59575 2.33366 5.83325C2.33366 3.07075 4.57116 0.833252 7.33366 0.833252C10.0962 0.833252 12.3337 3.07075 12.3337 5.83325C12.3337 8.59575 10.0962 10.8333 7.33366 10.8333ZM7.33366 9.16659C9.17532 9.16659 10.667 7.67492 10.667 5.83325C10.667 3.99159 9.17532 2.49992 7.33366 2.49992C5.49199 2.49992 4.00033 3.99159 4.00033 5.83325C4.00033 7.67492 5.49199 9.16659 7.33366 9.16659ZM14.237 12.2524C15.4081 12.7799 16.402 13.6343 17.0991 14.713C17.7963 15.7917 18.1671 17.0488 18.167 18.3333H16.5003C16.5005 17.3699 16.2225 16.427 15.6996 15.6179C15.1767 14.8088 14.4312 14.168 13.5528 13.7724L14.2362 12.2524H14.237ZM13.6637 2.84409C14.5033 3.19017 15.2211 3.77787 15.7262 4.53261C16.2312 5.28735 16.5007 6.17512 16.5003 7.08325C16.5007 8.22686 16.0734 9.32928 15.3024 10.1739C14.5315 11.0186 13.4725 11.5445 12.3337 11.6483V9.97075C12.9511 9.88232 13.5239 9.59827 13.9681 9.1603C14.4122 8.72233 14.7042 8.15352 14.8013 7.53736C14.8983 6.92121 14.7953 6.29017 14.5073 5.73688C14.2193 5.18359 13.7615 4.73721 13.2012 4.46325L13.6637 2.84409Z" fill="white"/>
</svg>
