<svg width="10" height="10" viewBox="0 0 10 10" fill="none" xmlns="http://www.w3.org/2000/svg">
<path d="M0.808058 0.808058C1.05214 0.563981 1.44786 0.563981 1.69194 0.808058L5 4.11612L8.30806 0.808058C8.55214 0.563981 8.94786 0.563981 9.19194 0.808058C9.43602 1.05214 9.43602 1.44786 9.19194 1.69194L5.88388 5L9.19194 8.30806C9.43602 8.55214 9.43602 8.94786 9.19194 9.19194C8.94786 9.43602 8.55214 9.43602 8.30806 9.19194L5 5.88388L1.69194 9.19194C1.44786 9.43602 1.05214 9.43602 0.808058 9.19194C0.563981 8.94786 0.563981 8.55214 0.808058 8.30806L4.11612 5L0.808058 1.69194C0.563981 1.44786 0.563981 1.05214 0.808058 0.808058Z" fill="#222222"/>
</svg>
